#!OML:ASF H:\Male1\Project 1\Capture day 1\Session 1\Male1.ASF
:FULLY-SPECIFIED
:DEGREES
463
root 16.4039 15.4949 -1.36195 -180.233 -91.128 178.996
lowerback 8.03577 1.5962 -2.41611
upperback 3.56581 1.82295 -0.926244
thorax -0.863136 0.84885 0.244955
lowerneck -11.0792 -0.352133 5.37874
upperneck 2.95532 -1.23557 -0.232647
head 2.8692 -0.563757 -1.0972
rclavicle 3.8763e-015 -8.34896e-015
rhumerus 29.5846 -7.96126 -29.7379
rradius 56.461
rwrist -3.54314
rhand -43.2553 15.86
rfingers 7.12502
rthumb -16.1042 -13.4909
lclavicle 3.8763e-015 -8.34896e-015
lhumerus -40.5048 -11.431 83.0586
lradius 44.7497
lwrist 7.09407
lhand -20.2834 7.08393
lfingers 7.12502
lthumb 6.0662 36.9771
rfemur -1.73369 5.75413 22.203
rtibia 21.0409
rfoot -30.1864 -29.6672
rtoes -17.7338
lfemur -2.05815 -20.5985 -18.1355
ltibia 21.5231
lfoot -21.9587 26.7929
ltoes -5.7687
464
root 16.3963 15.4914 -1.37818 -169.863 -90.7436 168.526
lowerback 7.91056 1.60983 -2.49325
upperback 3.59887 1.84013 -0.906466
thorax -0.763297 0.855159 0.310834
lowerneck -10.9466 -0.247318 5.47387
upperneck 2.83402 -1.10456 -0.166845
head 2.80671 -0.498257 -1.08229
rclavicle 8.94531e-015 -7.55382e-015
rhumerus 27.7641 -3.95025 -29.3823
rradius 58.2933
rwrist -3.18288
rhand -43.257 16.6858
rfingers 7.12502
rthumb -16.1058 -12.665
lclavicle 8.94531e-015 -7.55382e-015
lhumerus -40.9624 -11.5335 83.2098
lradius 44.4862
lwrist 7.01072
lhand -20.6317 7.00709
lfingers 7.12502
lthumb 5.72991 36.9096
rfemur -1.74968 5.60104 22.3667
rtibia 21.2055
rfoot -29.8002 -29.2894
rtoes -18.1364
lfemur -1.706 -20.5361 -18.0214
ltibia 21.3555
lfoot -22.1805 27.0933
ltoes -6.08999
465
root 16.3905 15.4889 -1.39127 -136.578 -90.3638 135.165
lowerback 7.72166 1.6299 -2.54104
upperback 3.65903 1.87067 -0.88087
thorax -0.600016 0.867345 0.367367
lowerneck -10.8988 -0.139292 5.60314
upperneck 2.76272 -0.968792 -0.268039
head 2.77785 -0.434743 -1.12977
rclavicle -1.50082e-014 8.74653e-015
rhumerus 26.4893 0.339125 -29.0939
rradius 60.2645
rwrist -3.04803
rhand -42.8509 17.2918
rfingers 7.12502
rthumb -15.7147 -12.0901
lclavicle -1.50082e-014 8.74653e-015
lhumerus -41.2207 -11.4785 83.3407
lradius 43.9674
lwrist 6.80303
lhand -20.6301 6.99773
lfingers 7.12502
lthumb 5.73149 36.9002
rfemur -1.789 5.47406 22.4876
rtibia 21.347
rfoot -29.495 -28.9239
rtoes -18.5806
lfemur -1.36069 -20.5926 -17.9717
ltibia 21.1916
lfoot -22.5869 27.4909
ltoes -5.54404
466
root 16.3887 15.4869 -1.40619 -211.428 -89.6581 209.955
lowerback 7.64372 1.66632 -2.77044
upperback 3.65495 1.90453 -0.925468
thorax -0.567565 0.881332 0.449046
lowerneck -10.9285 -0.00804438 5.78625
upperneck 2.79851 -0.810258 -0.451693
head 2.80181 -0.359545 -1.21476
rclavicle -1.09332e-015 1.19271e-015
rhumerus 25.6775 4.83596 -28.8935
rradius 62.3376
rwrist -2.86951
rhand -42.7731 17.7552
rfingers 7.12502
rthumb -15.6398 -11.6326
lclavicle -1.09332e-015 1.19271e-015
lhumerus -41.3588 -11.4357 83.4271
lradius 43.1534
lwrist 6.47639
lhand -20.2273 7.67836
lfingers 7.12502
lthumb 6.12035 37.5699
rfemur -1.86203 5.49767 22.422
rtibia 21.4928
rfoot -29.2478 -28.6226
rtoes -19.0779
lfemur -1.04418 -20.5377 -18.1181
ltibia 21.0228
lfoot -22.9969 27.8101
ltoes -4.55774
467
root 16.3945 15.4877 -1.42484 -185.382 -89.1659 183.892
lowerback 7.65369 1.73268 -3.0646
upperback 3.58397 1.97002 -0.978838
thorax -0.655569 0.912941 0.551688
lowerneck -11.0646 0.111929 5.99904
upperneck 2.99085 -0.6808 -0.614007
head 2.89956 -0.293913 -1.30253
rclavicle -1.23246e-014 -1.35174e-014
rhumerus 25.2668 9.2603 -28.7408
rradius 64.3688
rwrist -2.3903
rhand -41.7326 19.611
rfingers 7.12502
rthumb -14.6375 -9.85243
lclavicle -1.23246e-014 -1.35174e-014
lhumerus -41.4006 -11.4568 83.4841
lradius 42.131
lwrist 5.72309
lhand -19.7484 8.71013
lfingers 7.12502
lthumb 6.58269 38.5878
rfemur -2.02104 5.55465 22.3554
rtibia 21.6666
rfoot -28.9704 -28.4116
rtoes -19.6163
lfemur -0.832652 -20.2317 -18.2039
ltibia 20.846
lfoot -23.0448 28.047
ltoes -4.26839
468
root 16.3916 15.486 -1.43432 -181.428 -88.3164 179.923
lowerback 7.5086 1.92605 -3.16339
upperback 3.53219 2.22465 -1.05313
thorax -0.637655 1.04008 0.512816
lowerneck -11.2232 0.157224 6.14452
upperneck 3.26731 -0.648166 -0.704848
head 3.02731 -0.272465 -1.36144
rclavicle 2.54444e-014 -2.5842e-014
rhumerus 25.3055 13.4791 -28.5343
rradius 66.3196
rwrist -1.77263
rhand -40.7212 21.9967
rfingers 7.12502
rthumb -13.6629 -7.53486
lclavicle 2.54444e-014 -2.5842e-014
lhumerus -41.5105 -11.4301 83.4918
lradius 41.1624
lwrist 4.61525
lhand -20.764 4.15116
lfingers 7.12502
lthumb 5.60221 34.0571
rfemur -2.18597 5.56381 22.275
rtibia 21.8113
rfoot -28.3407 -28.0113
rtoes -20.7396
lfemur -0.505087 -19.8823 -18.3325
ltibia 20.7257
lfoot -23.4503 28.4409
ltoes -3.72508
469
root 16.3952 15.4821 -1.44383 -182.535 -87.5201 181.002
lowerback 7.44879 2.08564 -3.14321
upperback 3.5045 2.43932 -1.08627
thorax -0.637882 1.14789 0.451292
lowerneck -11.3508 0.1671 6.1803
upperneck 3.43791 -0.647655 -0.746647
head 3.11121 -0.26923 -1.38493
rclavicle 2.98177e-016 -1.55052e-014
rhumerus 25.9912 17.4882 -28.1199
rradius 68.2391
rwrist -1.07951
rhand -40.4339 23.6628
rfingers 7.12502
rthumb -13.386 -5.88715
lclavicle 2.98177e-016 -1.55052e-014
lhumerus -41.58 -11.4005 83.5012
lradius 40.2095
lwrist 3.8309
lhand -21.1408 2.37609
lfingers 7.12502
lthumb 5.23841 32.2913
rfemur -2.29963 5.66576 22.3245
rtibia 21.8405
rfoot -27.739 -27.5967
rtoes -21.5241
lfemur -0.296702 -19.5031 -18.3077
ltibia 20.7396
lfoot -23.8875 28.6874
ltoes -3.47763
